<svg xmlns="http://www.w3.org/2000/svg" xmlns:xlink="http://www.w3.org/1999/xlink" width="400" zoomAndPan="magnify" viewBox="0 0 300 74.999997" height="100" preserveAspectRatio="xMidYMid meet" version="1.0"><defs><g/><clipPath id="f51ff36b18"><path d="M 43.492188 5.453125 L 107.589844 5.453125 L 107.589844 69.546875 L 43.492188 69.546875 Z M 43.492188 5.453125 " clip-rule="nonzero"/></clipPath><clipPath id="b11753d518"><path d="M 75.542969 5.453125 C 57.839844 5.453125 43.492188 19.800781 43.492188 37.5 C 43.492188 55.199219 57.839844 69.546875 75.542969 69.546875 C 93.242188 69.546875 107.589844 55.199219 107.589844 37.5 C 107.589844 19.800781 93.242188 5.453125 75.542969 5.453125 Z M 75.542969 5.453125 " clip-rule="nonzero"/></clipPath><clipPath id="0299e04bfb"><path d="M 0.492188 0.453125 L 64.589844 0.453125 L 64.589844 64.546875 L 0.492188 64.546875 Z M 0.492188 0.453125 " clip-rule="nonzero"/></clipPath><clipPath id="0fa3df3d55"><path d="M 32.542969 0.453125 C 14.839844 0.453125 0.492188 14.800781 0.492188 32.5 C 0.492188 50.199219 14.839844 64.546875 32.542969 64.546875 C 50.242188 64.546875 64.589844 50.199219 64.589844 32.5 C 64.589844 14.800781 50.242188 0.453125 32.542969 0.453125 Z M 32.542969 0.453125 " clip-rule="nonzero"/></clipPath><clipPath id="24764328b9"><rect x="0" width="65" y="0" height="65"/></clipPath><clipPath id="0525be2aaa"><rect x="0" width="71" y="0" height="57"/></clipPath><clipPath id="0619fdda13"><rect x="0" width="161" y="0" height="55"/></clipPath></defs><g clip-path="url(#f51ff36b18)"><g clip-path="url(#b11753d518)"><g transform="matrix(1, 0, 0, 1, 43, 5)"><g clip-path="url(#24764328b9)"><g clip-path="url(#0299e04bfb)"><g clip-path="url(#0fa3df3d55)"><path fill="#32cd32" d="M 0.492188 0.453125 L 64.589844 0.453125 L 64.589844 64.546875 L 0.492188 64.546875 Z M 0.492188 0.453125 " fill-opacity="1" fill-rule="nonzero"/></g></g></g></g></g></g><g transform="matrix(1, 0, 0, 1, 43, 13)"><g clip-path="url(#0525be2aaa)"><g fill="#ffffff" fill-opacity="1"><g transform="translate(2.459696, 38.057028)"><g><path d="M 33.453125 -36.640625 L 15.28125 -7.328125 L 32.25 -7.328125 L 32.25 0 L 0.703125 0 L 18.828125 -29.3125 L 3.28125 -29.3125 L 3.28125 -36.640625 Z M 33.453125 -36.640625 "/></g></g></g><g fill="#ffffff" fill-opacity="1"><g transform="translate(36.623762, 38.057028)"><g><path d="M 10.078125 -22.78125 L 10.078125 -11.953125 C 10.078125 -9.703125 10.414062 -8.101562 11.09375 -7.15625 C 11.78125 -6.207031 12.9375 -5.734375 14.5625 -5.734375 C 16.195312 -5.734375 17.351562 -6.207031 18.03125 -7.15625 C 18.71875 -8.101562 19.0625 -9.703125 19.0625 -11.953125 L 19.0625 -22.78125 L 26.921875 -22.78125 L 26.921875 -10.046875 C 26.921875 -6.253906 25.9375 -3.519531 23.96875 -1.84375 C 22 -0.164062 18.863281 0.671875 14.5625 0.671875 C 10.269531 0.671875 7.140625 -0.164062 5.171875 -1.84375 C 3.203125 -3.519531 2.21875 -6.253906 2.21875 -10.046875 L 2.21875 -22.78125 Z M 10.078125 -22.78125 "/></g></g></g></g></g><g transform="matrix(1, 0, 0, 1, 106, 15)"><g clip-path="url(#0619fdda13)"><g fill="#000000" fill-opacity="1"><g transform="translate(1.277288, 39.139626)"><g><path d="M 10.78125 -35.84375 L 10.78125 -7.171875 L 23.109375 -7.171875 L 23.109375 0 L 2.609375 0 L 2.609375 -35.84375 Z M 10.78125 -35.84375 "/></g></g></g><g fill="#000000" fill-opacity="1"><g transform="translate(25.822199, 39.139626)"><g><path d="M 25.15625 -10.078125 L 9 -10.078125 C 9 -8.515625 9.503906 -7.351562 10.515625 -6.59375 C 11.523438 -5.84375 12.625 -5.46875 13.8125 -5.46875 C 15.0625 -5.46875 16.046875 -5.632812 16.765625 -5.96875 C 17.492188 -6.300781 18.320312 -6.960938 19.25 -7.953125 L 24.8125 -5.171875 C 22.488281 -1.285156 18.632812 0.65625 13.25 0.65625 C 9.894531 0.65625 7.015625 -0.492188 4.609375 -2.796875 C 2.203125 -5.097656 1 -7.867188 1 -11.109375 C 1 -14.359375 2.203125 -17.140625 4.609375 -19.453125 C 7.015625 -21.773438 9.894531 -22.9375 13.25 -22.9375 C 16.78125 -22.9375 19.65625 -21.914062 21.875 -19.875 C 24.09375 -17.832031 25.203125 -14.914062 25.203125 -11.125 C 25.203125 -10.601562 25.1875 -10.253906 25.15625 -10.078125 Z M 9.21875 -14.34375 L 17.6875 -14.34375 C 17.507812 -15.5 17.050781 -16.390625 16.3125 -17.015625 C 15.570312 -17.640625 14.625 -17.953125 13.46875 -17.953125 C 12.195312 -17.953125 11.179688 -17.617188 10.421875 -16.953125 C 9.671875 -16.285156 9.269531 -15.414062 9.21875 -14.34375 Z M 9.21875 -14.34375 "/></g></g></g><g fill="#000000" fill-opacity="1"><g transform="translate(52.01792, 39.139626)"><g><path d="M 4.125 -2.75 C 2.039062 -5.03125 1 -7.820312 1 -11.125 C 1 -14.425781 2.039062 -17.21875 4.125 -19.5 C 6.207031 -21.789062 8.859375 -22.9375 12.078125 -22.9375 C 15.035156 -22.9375 17.46875 -22.007812 19.375 -20.15625 L 19.375 -37.375 L 27.078125 -37.375 L 27.078125 0 L 19.46875 0 L 19.46875 -2.515625 L 19.375 -2.515625 C 17.46875 -0.398438 15.035156 0.65625 12.078125 0.65625 C 8.859375 0.65625 6.207031 -0.476562 4.125 -2.75 Z M 10.671875 -14.890625 C 9.671875 -13.910156 9.171875 -12.65625 9.171875 -11.125 C 9.171875 -9.59375 9.644531 -8.335938 10.59375 -7.359375 C 11.550781 -6.390625 12.816406 -5.90625 14.390625 -5.90625 C 15.890625 -5.90625 17.125 -6.394531 18.09375 -7.375 C 19.0625 -8.363281 19.546875 -9.613281 19.546875 -11.125 C 19.546875 -12.65625 19.046875 -13.910156 18.046875 -14.890625 C 17.054688 -15.878906 15.835938 -16.375 14.390625 -16.375 C 12.910156 -16.375 11.671875 -15.878906 10.671875 -14.890625 Z M 10.671875 -14.890625 "/></g></g></g><g fill="#000000" fill-opacity="1"><g transform="translate(81.68902, 39.139626)"><g><path d="M 1.609375 5.46875 L 7.90625 2.390625 C 9.0625 4.304688 11.078125 5.265625 13.953125 5.265625 C 15.285156 5.265625 16.519531 4.832031 17.65625 3.96875 C 18.800781 3.113281 19.375 1.804688 19.375 0.046875 L 19.375 -1.609375 C 18.019531 -0.0976562 15.585938 0.65625 12.078125 0.65625 C 8.859375 0.65625 6.207031 -0.476562 4.125 -2.75 C 2.039062 -5.03125 1 -7.820312 1 -11.125 C 1 -14.425781 2.039062 -17.21875 4.125 -19.5 C 6.207031 -21.789062 8.859375 -22.9375 12.078125 -22.9375 C 14.941406 -22.9375 17.332031 -22.054688 19.25 -20.296875 L 19.375 -20.296875 L 19.375 -22.296875 L 27.078125 -22.296875 L 27.078125 0.609375 C 27.078125 4.234375 25.875 7.03125 23.46875 9 C 21.0625 10.96875 17.890625 11.953125 13.953125 11.953125 C 7.578125 11.953125 3.460938 9.789062 1.609375 5.46875 Z M 10.671875 -14.890625 C 9.671875 -13.910156 9.171875 -12.65625 9.171875 -11.125 C 9.171875 -9.59375 9.644531 -8.335938 10.59375 -7.359375 C 11.550781 -6.390625 12.816406 -5.90625 14.390625 -5.90625 C 15.890625 -5.90625 17.125 -6.394531 18.09375 -7.375 C 19.0625 -8.363281 19.546875 -9.613281 19.546875 -11.125 C 19.546875 -12.65625 19.046875 -13.910156 18.046875 -14.890625 C 17.054688 -15.878906 15.835938 -16.375 14.390625 -16.375 C 12.910156 -16.375 11.671875 -15.878906 10.671875 -14.890625 Z M 10.671875 -14.890625 "/></g></g></g><g fill="#000000" fill-opacity="1"><g transform="translate(111.142858, 39.139626)"><g><path d="M 25.15625 -10.078125 L 9 -10.078125 C 9 -8.515625 9.503906 -7.351562 10.515625 -6.59375 C 11.523438 -5.84375 12.625 -5.46875 13.8125 -5.46875 C 15.0625 -5.46875 16.046875 -5.632812 16.765625 -5.96875 C 17.492188 -6.300781 18.320312 -6.960938 19.25 -7.953125 L 24.8125 -5.171875 C 22.488281 -1.285156 18.632812 0.65625 13.25 0.65625 C 9.894531 0.65625 7.015625 -0.492188 4.609375 -2.796875 C 2.203125 -5.097656 1 -7.867188 1 -11.109375 C 1 -14.359375 2.203125 -17.140625 4.609375 -19.453125 C 7.015625 -21.773438 9.894531 -22.9375 13.25 -22.9375 C 16.78125 -22.9375 19.65625 -21.914062 21.875 -19.875 C 24.09375 -17.832031 25.203125 -14.914062 25.203125 -11.125 C 25.203125 -10.601562 25.1875 -10.253906 25.15625 -10.078125 Z M 9.21875 -14.34375 L 17.6875 -14.34375 C 17.507812 -15.5 17.050781 -16.390625 16.3125 -17.015625 C 15.570312 -17.640625 14.625 -17.953125 13.46875 -17.953125 C 12.195312 -17.953125 11.179688 -17.617188 10.421875 -16.953125 C 9.671875 -16.285156 9.269531 -15.414062 9.21875 -14.34375 Z M 9.21875 -14.34375 "/></g></g></g><g fill="#000000" fill-opacity="1"><g transform="translate(137.251675, 39.139626)"><g><path d="M 2.609375 0 L 2.609375 -22.296875 L 10.296875 -22.296875 L 10.296875 -19.078125 L 10.390625 -19.078125 C 10.441406 -19.191406 10.53125 -19.332031 10.65625 -19.5 C 10.789062 -19.675781 11.078125 -19.984375 11.515625 -20.421875 C 11.953125 -20.859375 12.414062 -21.25 12.90625 -21.59375 C 13.394531 -21.945312 14.03125 -22.257812 14.8125 -22.53125 C 15.59375 -22.800781 16.390625 -22.9375 17.203125 -22.9375 C 18.046875 -22.9375 18.875 -22.820312 19.6875 -22.59375 C 20.5 -22.363281 21.09375 -22.132812 21.46875 -21.90625 L 22.078125 -21.546875 L 18.859375 -15.03125 C 17.898438 -15.84375 16.566406 -16.25 14.859375 -16.25 C 13.929688 -16.25 13.132812 -16.046875 12.46875 -15.640625 C 11.800781 -15.234375 11.328125 -14.738281 11.046875 -14.15625 C 10.773438 -13.582031 10.582031 -13.09375 10.46875 -12.6875 C 10.351562 -12.28125 10.296875 -11.960938 10.296875 -11.734375 L 10.296875 0 Z M 2.609375 0 "/></g></g></g></g></g></svg>