<svg xmlns="http://www.w3.org/2000/svg" xmlns:xlink="http://www.w3.org/1999/xlink" width="400" zoomAndPan="magnify" viewBox="0 0 300 299.999988" height="400" preserveAspectRatio="xMidYMid meet" version="1.0"><defs><g/><clipPath id="769fcc15ce"><path d="M 19.890625 19.890625 L 280.109375 19.890625 L 280.109375 280.109375 L 19.890625 280.109375 Z M 19.890625 19.890625 " clip-rule="nonzero"/></clipPath><clipPath id="bd13a844e5"><path d="M 150 19.890625 C 78.144531 19.890625 19.890625 78.144531 19.890625 150 C 19.890625 221.855469 78.144531 280.109375 150 280.109375 C 221.855469 280.109375 280.109375 221.855469 280.109375 150 C 280.109375 78.144531 221.855469 19.890625 150 19.890625 Z M 150 19.890625 " clip-rule="nonzero"/></clipPath><clipPath id="24a1def796"><path d="M 0.890625 0.890625 L 261.109375 0.890625 L 261.109375 261.109375 L 0.890625 261.109375 Z M 0.890625 0.890625 " clip-rule="nonzero"/></clipPath><clipPath id="67d8749574"><path d="M 131 0.890625 C 59.144531 0.890625 0.890625 59.144531 0.890625 131 C 0.890625 202.855469 59.144531 261.109375 131 261.109375 C 202.855469 261.109375 261.109375 202.855469 261.109375 131 C 261.109375 59.144531 202.855469 0.890625 131 0.890625 Z M 131 0.890625 " clip-rule="nonzero"/></clipPath><clipPath id="43a9b4baa3"><rect x="0" width="262" y="0" height="262"/></clipPath><clipPath id="62c65ec6b2"><path d="M 47.796875 113 L 249.546875 113 L 249.546875 200.402344 L 47.796875 200.402344 Z M 47.796875 113 " clip-rule="nonzero"/></clipPath><clipPath id="f5a0fc3b51"><path d="M 178 39.152344 L 202 39.152344 L 202 151 L 178 151 Z M 178 39.152344 " clip-rule="nonzero"/></clipPath></defs><g clip-path="url(#769fcc15ce)"><g clip-path="url(#bd13a844e5)"><g transform="matrix(1, 0, 0, 1, 19, 19)"><g clip-path="url(#43a9b4baa3)"><g clip-path="url(#24a1def796)"><g clip-path="url(#67d8749574)"><path fill="#000000" d="M 0.890625 0.890625 L 261.109375 0.890625 L 261.109375 261.109375 L 0.890625 261.109375 Z M 0.890625 0.890625 " fill-opacity="1" fill-rule="nonzero"/></g></g></g></g></g></g><g clip-path="url(#62c65ec6b2)"><path fill="#32cd32" d="M 248.050781 113.882812 L 223.820312 114.324219 C 222.683594 114.34375 222.03125 115.625 222.683594 116.554688 L 226.429688 121.914062 C 226.484375 121.988281 226.464844 122.085938 226.394531 122.132812 L 145.992188 179.253906 C 145.890625 179.328125 145.746094 179.253906 145.746094 179.125 L 145.746094 135.605469 C 145.746094 135.03125 145.441406 134.5 144.949219 134.207031 C 144.457031 133.914062 143.84375 133.898438 143.339844 134.175781 L 48.699219 185.636719 C 48.320312 185.839844 48.039062 186.191406 47.914062 186.605469 C 47.792969 187.019531 47.839844 187.464844 48.046875 187.84375 L 52.089844 195.28125 C 52.519531 196.070312 53.507812 196.363281 54.300781 195.933594 L 133.789062 152.710938 C 133.894531 152.652344 134.019531 152.730469 134.019531 152.847656 L 134.019531 198.875 C 134.019531 199.339844 134.164062 199.816406 134.5 200.140625 C 134.828125 200.457031 135.238281 200.613281 135.648438 200.613281 C 135.980469 200.613281 136.3125 200.511719 136.59375 200.3125 L 233.113281 131.742188 C 233.183594 131.691406 233.28125 131.710938 233.332031 131.78125 L 238.191406 138.726562 C 238.84375 139.660156 240.273438 139.484375 240.679688 138.425781 L 249.398438 115.8125 C 249.761719 114.871094 249.058594 113.863281 248.050781 113.882812 " fill-opacity="1" fill-rule="nonzero"/></g><path fill="#ffffff" d="M 108.550781 84.40625 L 108.550781 148.175781 C 108.550781 148.234375 108.519531 148.289062 108.46875 148.316406 L 85.507812 160.804688 C 85.402344 160.863281 85.277344 160.785156 85.277344 160.667969 L 85.277344 84.40625 C 85.277344 84.316406 85.347656 84.246094 85.433594 84.246094 L 108.394531 84.246094 C 108.480469 84.246094 108.550781 84.316406 108.550781 84.40625 " fill-opacity="1" fill-rule="nonzero"/><g clip-path="url(#f5a0fc3b51)"><path fill="#32cd32" d="M 201.644531 39.355469 L 201.644531 134.441406 C 201.644531 134.492188 201.621094 134.539062 201.578125 134.570312 L 178.617188 150.882812 C 178.511719 150.953125 178.371094 150.882812 178.371094 150.753906 L 178.371094 39.355469 C 178.371094 39.269531 178.4375 39.199219 178.527344 39.199219 L 201.488281 39.199219 C 201.574219 39.199219 201.644531 39.269531 201.644531 39.355469 " fill-opacity="1" fill-rule="nonzero"/></g><path fill="#ffffff" d="M 169.09375 97.421875 L 169.09375 157.566406 C 169.09375 157.617188 169.070312 157.667969 169.03125 157.695312 L 150.230469 171.050781 C 150.125 171.125 149.980469 171.050781 149.980469 170.921875 L 149.980469 135.601562 C 149.980469 133.550781 148.878906 131.617188 147.113281 130.570312 C 146.738281 130.347656 146.34375 130.164062 145.933594 130.035156 C 145.867188 130.015625 145.824219 129.957031 145.824219 129.890625 L 145.824219 97.421875 C 145.824219 97.335938 145.894531 97.265625 145.980469 97.265625 L 168.9375 97.265625 C 169.023438 97.265625 169.09375 97.335938 169.09375 97.421875 " fill-opacity="1" fill-rule="nonzero"/><path fill="#32cd32" d="M 138.824219 58.136719 L 138.824219 131.71875 C 138.824219 131.777344 138.792969 131.828125 138.742188 131.859375 L 115.785156 144.339844 C 115.679688 144.398438 115.554688 144.324219 115.554688 144.203125 L 115.554688 58.136719 C 115.554688 58.050781 115.625 57.980469 115.710938 57.980469 L 138.667969 57.980469 C 138.753906 57.980469 138.824219 58.050781 138.824219 58.136719 " fill-opacity="1" fill-rule="nonzero"/><g fill="#32cd32" fill-opacity="1"><g transform="translate(75.591973, 232.18813)"><g><path d="M 22.515625 -24.671875 L 10.28125 -4.9375 L 21.71875 -4.9375 L 21.71875 0 L 0.484375 0 L 12.6875 -19.734375 L 2.21875 -19.734375 L 2.21875 -24.671875 Z M 22.515625 -24.671875 "/></g></g></g><g fill="#32cd32" fill-opacity="1"><g transform="translate(98.589892, 232.18813)"><g><path d="M 6.78125 -15.34375 L 6.78125 -8.046875 C 6.78125 -6.523438 7.007812 -5.445312 7.46875 -4.8125 C 7.9375 -4.175781 8.71875 -3.859375 9.8125 -3.859375 C 10.90625 -3.859375 11.679688 -4.175781 12.140625 -4.8125 C 12.597656 -5.445312 12.828125 -6.523438 12.828125 -8.046875 L 12.828125 -15.34375 L 18.125 -15.34375 L 18.125 -6.765625 C 18.125 -4.210938 17.457031 -2.367188 16.125 -1.234375 C 14.800781 -0.109375 12.691406 0.453125 9.796875 0.453125 C 6.910156 0.453125 4.804688 -0.109375 3.484375 -1.234375 C 2.160156 -2.367188 1.5 -4.210938 1.5 -6.765625 L 1.5 -15.34375 Z M 6.78125 -15.34375 "/></g></g></g><g fill="#ffffff" fill-opacity="1"><g transform="translate(118.213063, 232.18813)"><g><path d="M 7.421875 -24.671875 L 7.421875 -4.9375 L 15.90625 -4.9375 L 15.90625 0 L 1.796875 0 L 1.796875 -24.671875 Z M 7.421875 -24.671875 "/></g></g></g><g fill="#ffffff" fill-opacity="1"><g transform="translate(135.110103, 232.18813)"><g><path d="M 17.3125 -6.9375 L 6.1875 -6.9375 C 6.1875 -5.863281 6.535156 -5.066406 7.234375 -4.546875 C 7.929688 -4.023438 8.691406 -3.765625 9.515625 -3.765625 C 10.367188 -3.765625 11.046875 -3.878906 11.546875 -4.109375 C 12.046875 -4.335938 12.613281 -4.789062 13.25 -5.46875 L 17.078125 -3.5625 C 15.484375 -0.882812 12.832031 0.453125 9.125 0.453125 C 6.8125 0.453125 4.828125 -0.335938 3.171875 -1.921875 C 1.515625 -3.515625 0.6875 -5.425781 0.6875 -7.65625 C 0.6875 -9.882812 1.515625 -11.796875 3.171875 -13.390625 C 4.828125 -14.992188 6.8125 -15.796875 9.125 -15.796875 C 11.550781 -15.796875 13.523438 -15.09375 15.046875 -13.6875 C 16.578125 -12.28125 17.34375 -10.269531 17.34375 -7.65625 C 17.34375 -7.300781 17.332031 -7.0625 17.3125 -6.9375 Z M 6.34375 -9.875 L 12.171875 -9.875 C 12.054688 -10.664062 11.742188 -11.273438 11.234375 -11.703125 C 10.722656 -12.128906 10.066406 -12.34375 9.265625 -12.34375 C 8.390625 -12.34375 7.691406 -12.113281 7.171875 -11.65625 C 6.660156 -11.195312 6.382812 -10.601562 6.34375 -9.875 Z M 6.34375 -9.875 "/></g></g></g><g fill="#ffffff" fill-opacity="1"><g transform="translate(153.143586, 232.18813)"><g><path d="M 2.84375 -1.890625 C 1.40625 -3.460938 0.6875 -5.382812 0.6875 -7.65625 C 0.6875 -9.925781 1.40625 -11.847656 2.84375 -13.421875 C 4.28125 -15.003906 6.101562 -15.796875 8.3125 -15.796875 C 10.34375 -15.796875 12.019531 -15.15625 13.34375 -13.875 L 13.34375 -25.71875 L 18.625 -25.71875 L 18.625 0 L 13.390625 0 L 13.390625 -1.734375 L 13.34375 -1.734375 C 12.019531 -0.273438 10.34375 0.453125 8.3125 0.453125 C 6.101562 0.453125 4.28125 -0.328125 2.84375 -1.890625 Z M 7.34375 -10.25 C 6.65625 -9.570312 6.3125 -8.707031 6.3125 -7.65625 C 6.3125 -6.601562 6.640625 -5.738281 7.296875 -5.0625 C 7.953125 -4.394531 8.820312 -4.0625 9.90625 -4.0625 C 10.9375 -4.0625 11.785156 -4.398438 12.453125 -5.078125 C 13.117188 -5.753906 13.453125 -6.613281 13.453125 -7.65625 C 13.453125 -8.707031 13.109375 -9.570312 12.421875 -10.25 C 11.734375 -10.9375 10.894531 -11.28125 9.90625 -11.28125 C 8.882812 -11.28125 8.03125 -10.9375 7.34375 -10.25 Z M 7.34375 -10.25 "/></g></g></g><g fill="#ffffff" fill-opacity="1"><g transform="translate(173.569572, 232.18813)"><g><path d="M 1.109375 3.765625 L 5.4375 1.640625 C 6.238281 2.960938 7.625 3.625 9.59375 3.625 C 10.507812 3.625 11.363281 3.328125 12.15625 2.734375 C 12.945312 2.148438 13.34375 1.25 13.34375 0.03125 L 13.34375 -1.109375 C 12.40625 -0.0664062 10.726562 0.453125 8.3125 0.453125 C 6.101562 0.453125 4.28125 -0.328125 2.84375 -1.890625 C 1.40625 -3.460938 0.6875 -5.382812 0.6875 -7.65625 C 0.6875 -9.925781 1.40625 -11.847656 2.84375 -13.421875 C 4.28125 -15.003906 6.101562 -15.796875 8.3125 -15.796875 C 10.289062 -15.796875 11.9375 -15.1875 13.25 -13.96875 L 13.34375 -13.96875 L 13.34375 -15.34375 L 18.625 -15.34375 L 18.625 0.421875 C 18.625 2.910156 17.796875 4.832031 16.140625 6.1875 C 14.492188 7.539062 12.3125 8.21875 9.59375 8.21875 C 5.207031 8.21875 2.378906 6.734375 1.109375 3.765625 Z M 7.34375 -10.25 C 6.65625 -9.570312 6.3125 -8.707031 6.3125 -7.65625 C 6.3125 -6.601562 6.640625 -5.738281 7.296875 -5.0625 C 7.953125 -4.394531 8.820312 -4.0625 9.90625 -4.0625 C 10.9375 -4.0625 11.785156 -4.398438 12.453125 -5.078125 C 13.117188 -5.753906 13.453125 -6.613281 13.453125 -7.65625 C 13.453125 -8.707031 13.109375 -9.570312 12.421875 -10.25 C 11.734375 -10.9375 10.894531 -11.28125 9.90625 -11.28125 C 8.882812 -11.28125 8.03125 -10.9375 7.34375 -10.25 Z M 7.34375 -10.25 "/></g></g></g><g fill="#ffffff" fill-opacity="1"><g transform="translate(193.846007, 232.18813)"><g><path d="M 17.3125 -6.9375 L 6.1875 -6.9375 C 6.1875 -5.863281 6.535156 -5.066406 7.234375 -4.546875 C 7.929688 -4.023438 8.691406 -3.765625 9.515625 -3.765625 C 10.367188 -3.765625 11.046875 -3.878906 11.546875 -4.109375 C 12.046875 -4.335938 12.613281 -4.789062 13.25 -5.46875 L 17.078125 -3.5625 C 15.484375 -0.882812 12.832031 0.453125 9.125 0.453125 C 6.8125 0.453125 4.828125 -0.335938 3.171875 -1.921875 C 1.515625 -3.515625 0.6875 -5.425781 0.6875 -7.65625 C 0.6875 -9.882812 1.515625 -11.796875 3.171875 -13.390625 C 4.828125 -14.992188 6.8125 -15.796875 9.125 -15.796875 C 11.550781 -15.796875 13.523438 -15.09375 15.046875 -13.6875 C 16.578125 -12.28125 17.34375 -10.269531 17.34375 -7.65625 C 17.34375 -7.300781 17.332031 -7.0625 17.3125 -6.9375 Z M 6.34375 -9.875 L 12.171875 -9.875 C 12.054688 -10.664062 11.742188 -11.273438 11.234375 -11.703125 C 10.722656 -12.128906 10.066406 -12.34375 9.265625 -12.34375 C 8.390625 -12.34375 7.691406 -12.113281 7.171875 -11.65625 C 6.660156 -11.195312 6.382812 -10.601562 6.34375 -9.875 Z M 6.34375 -9.875 "/></g></g></g><g fill="#ffffff" fill-opacity="1"><g transform="translate(211.819673, 232.18813)"><g><path d="M 1.796875 0 L 1.796875 -15.34375 L 7.09375 -15.34375 L 7.09375 -13.125 L 7.140625 -13.125 C 7.179688 -13.207031 7.25 -13.304688 7.34375 -13.421875 C 7.4375 -13.546875 7.628906 -13.753906 7.921875 -14.046875 C 8.222656 -14.347656 8.539062 -14.617188 8.875 -14.859375 C 9.21875 -15.097656 9.65625 -15.3125 10.1875 -15.5 C 10.726562 -15.695312 11.28125 -15.796875 11.84375 -15.796875 C 12.414062 -15.796875 12.984375 -15.710938 13.546875 -15.546875 C 14.109375 -15.390625 14.519531 -15.234375 14.78125 -15.078125 L 15.1875 -14.828125 L 12.984375 -10.34375 C 12.328125 -10.90625 11.410156 -11.1875 10.234375 -11.1875 C 9.585938 -11.1875 9.035156 -11.046875 8.578125 -10.765625 C 8.117188 -10.484375 7.796875 -10.144531 7.609375 -9.75 C 7.421875 -9.351562 7.285156 -9.015625 7.203125 -8.734375 C 7.128906 -8.453125 7.09375 -8.234375 7.09375 -8.078125 L 7.09375 0 Z M 1.796875 0 "/></g></g></g></svg>